<?xml version="1.0"?>
<svg width="640" height="480" xmlns="http://www.w3.org/2000/svg" xmlns:svg="http://www.w3.org/2000/svg" xmlns:xlink="http://www.w3.org/1999/xlink">
 <!-- Created with SVG-edit - https://github.com/SVG-Edit/svgedit-->
 <defs>
  <symbol height="24" id="svg_19" width="24" xmlns="http://www.w3.org/2000/svg"/>
 </defs>
 <g class="layer">
  <title>Layer 1</title>
  <ellipse cx="296.5" cy="230.5" fill="#ff7f00" id="svg_1" rx="174.5" ry="167.5" stroke="#000000"/>
  <ellipse cx="218" cy="158" fill="#ffffff" id="svg_6" rx="37" ry="33" stroke="#000000" transform="matrix(1 0 0 1 0 0)"/>
  <ellipse cx="355" cy="160" fill="#ffffff" id="svg_7" rx="37" ry="33" stroke="#000000"/>
  <ellipse cx="216" cy="158" fill="#000000" id="svg_8" rx="13" ry="13" stroke="#000000"/>
  <ellipse cx="354" cy="159" fill="#191919" id="svg_9" rx="13" ry="13" stroke="#000000"/>
  <ellipse cx="292" cy="317" fill="#000000" id="svg_10" rx="119" ry="26" stroke="#000000"/>
  <line fill="none" id="svg_15" stroke="#000000" x1="156" x2="164" y1="130" y2="42"/>
  <line fill="none" id="svg_16" stroke="#000000" x1="219" x2="165" y1="82" y2="42"/>
  <line fill="none" id="svg_17" stroke="#000000" x1="439" x2="435" y1="131" y2="44"/>
  <line fill="none" id="svg_18" stroke="#000000" x1="380" x2="436" y1="86" y2="45"/>
  <use fill="#ff7f00" id="svg_21" transform="matrix(1 0 0 1 0 0) matrix(3.20784 0 0 3.29886 248.506 197.414)" x="0" xlink:href="#svg_19" y="0"/>
  <use id="svg_22" transform="matrix(6.66667 0 0 6.66667 0 0)" x="0" xlink:href="#svg_19" y="0"/>
  <use id="svg_23" transform="matrix(1 0 0 1 0 0) matrix(6.66667 0 0 6.66667 0 0)" x="0" xlink:href="#svg_19" y="0"/>
  <circle cx="292.5" cy="247.5" fill="#191919" id="svg_24" r="17.7" stroke="#000000"/>
 </g>
</svg>